<svg id="Layer_1" data-name="Layer 1" xmlns="http://www.w3.org/2000/svg" viewBox="0 0 300 300"><defs><style>.cls-1{fill:#f7941d;}.cls-2{fill:#231f20;}</style></defs><rect class="cls-1" width="300" height="300"/><path class="cls-2" d="M291.63,176.79c.83-.34,1.24-.17,1.24.51,0,.34-.49,1-1.48,2q-3,3.55-12.12,8.87-7.17,4.32-14.1,7.61-18.54,8.63-29.92,6.59-20.77-3.79-14.59-42.85c.33-2.71,1-6.38,2.1-11s1.77-7.56,2.11-8.74c.16-1,.49-3,1-5.84,0-.16,0-.63.12-1.39a5.18,5.18,0,0,1,.37-1.65,1.87,1.87,0,0,0-.12-1.52c-.25-.34-.71-.34-1.36,0a23.76,23.76,0,0,0-2.72,1.27A120.37,120.37,0,0,0,210,140.27q-8.91,7.86-12.61,11.16-13.86,11.92-25.72,21a116.67,116.67,0,0,1-10.14,7.35q-8.66,5.58-10.39,1.27c-.66-1.69-.82-4.22-.49-7.61a57.12,57.12,0,0,1,1.24-8.11q1.49-6.6,4.45-16.49,3-8.87,7-20.66t8-23.33q4-11.55,6.93-20.67a114.87,114.87,0,0,0,4.2-16q.73-5.58-1.24-6.34-3.21-1.26-7.66.25-5.44,2-12.86,8.12-5.19,4.56-11.62,11.16-16.57,17.49-42,51.73-20.53,27.65-38.08,55.54c-1.82,3-3.8,6.43-5.94,10.14q12.12-19.26,22.5-34.23Q95.78,149.91,116.06,123A469.31,469.31,0,0,1,149,84q10.88-10.89,19-16.23,5.19-3.28,8.41-3.8a7.44,7.44,0,0,1,3.21.51c.5.34.66,1.1.5,2.28a25.09,25.09,0,0,1-1,5.58q-1.74,6.84-6.18,19.27c-.34.51-1.65,4-4,10.4l-5.19,14.45q-12.61,34.5-15.34,49.2a52.33,52.33,0,0,0-1.23,12.17q.5,7.62,4.7,8.88,3.71,1,11.37-3.3c2.8-1.85,6.27-4.31,10.39-7.35q5.92-4.56,12.49-9.89t15-12.55q8.4-7.23,12.36-10.53,2.72-2.28,3.71-3a12.79,12.79,0,0,1,2.72-1.78c.33,0,.5.26.5.76a7.57,7.57,0,0,0-.5,1.53,7.37,7.37,0,0,0-.25,1.26,202.6,202.6,0,0,0-3.95,21.05Q212,192,224.12,202.15q6.69,5.58,17.81,4.82a69.67,69.67,0,0,0,11.87-2.28,21.93,21.93,0,0,1,2.35-.89,26.34,26.34,0,0,1,3.09-.89,19.66,19.66,0,0,1,4.2-.76c1.15,0,1,.51-.49,1.52a14.66,14.66,0,0,1-3.71,2,47.26,47.26,0,0,1-11.62,3.3,41.68,41.68,0,0,1-11.87.76q-10.63-1.27-16.82-8.88Q213,193.53,212,181.1a96.64,96.64,0,0,1,.74-22.57q.5-2.79,1-6.34l1-5.32c-.17,0-.42.17-.74.5l-1.12,1.14-.86.89Q188.76,170,179.86,177,169,185.92,162.8,189.22T152.41,192q-5.44-.51-8.16-5.84-2.72-4.81-1.73-13.94a145.39,145.39,0,0,1,4.95-22.07q3.45-11.91,14.83-44.38,5.44-15.47,7.67-22.06,2.22-7.09,3.46-11.41l.25-1.27c0-.17-.33-.08-1,.25q-6.18,3.3-16.82,13.45-7.41,7.35-15.58,16.48-14.08,16.48-28.43,36.26-5.2,7.11-14.59,21.05T86.14,175.27q-14.34,20.79-25.22,38.8-3,5.33-5.44,9.38c-.67,2.2-1.24,4.23-1.74,6.09a90.76,90.76,0,0,1-5.19,14.2c-1.48,3-3.3,5.07-5.44,6.09a7.09,7.09,0,0,1-5.69.63A7.23,7.23,0,0,1,33,246.78q-2.22-3.79,0-9.89A95.21,95.21,0,0,1,39.4,223.2c1.15-2.2,2.56-4.65,4.21-7.36q3.45-12.17,5.44-20.28Q53.49,177.8,57,154.73a327.2,327.2,0,0,0,4.2-42.61Q61.91,86,56.22,72.31q-4-9.37-10.39-12.17-8.16-3.55-17.56,3a15.34,15.34,0,0,0-3,2q-2.47,2.54-6.93,8c-3,3.63-4.7,5.7-5.19,6.21Q8,85.5,7.25,82.71a1.72,1.72,0,0,1,0-1.27q.5-4.56,4.7-11.92Q20.6,54.31,34.09,50.37T57.7,55.83q5.94,5.84,9.64,16a99.67,99.67,0,0,1,5.45,27.9,297.35,297.35,0,0,1-1,32.71q-1.48,16-4,32.46-1.25,8.37-2.72,16,19.29-29.67,36.35-52.5,25-33,40.56-49.45,13.85-14.19,23.74-20a27.12,27.12,0,0,1,10.63-3.81q8.9-1,11.62,5.08,1.72,4.56-.74,14.45c-.33,1.19-.83,2.88-1.48,5.07q-3.23,11.16-9.65,28.66-.74,2-5.44,14.33t-6.3,17q-1.62,4.7-4.21,14a119.37,119.37,0,0,0-3.58,16.86,30.31,30.31,0,0,0-.5,4.06c-.17,1.18.08,1.86.74,2a3.74,3.74,0,0,0,1.49-.51q3.45-2,11.62-8.12,5.43-4.31,25-20.79c1.15-.84,2.42-1.86,3.83-3s2.68-2.24,3.83-3.17,2.39-2,3.71-3.17,2.55-2.2,3.71-3.05c4.61-3.88,8-6.34,10.14-7.35a11.92,11.92,0,0,1,6.18-1.78c1.32,0,2.14.34,2.47,1,0,.17.08.76.25,1.77a22.27,22.27,0,0,1,.5,3.55,1,1,0,0,0-.25.76v1.78q-.25,1.27-3,12.17a109.94,109.94,0,0,0-3,15.73,70.46,70.46,0,0,0-.49,14.2q.74,17,9.39,21c3.13,1.53,7.18,1.95,12.12,1.27a49,49,0,0,0,15.09-4,134.17,134.17,0,0,0,27.69-15.22A34.86,34.86,0,0,1,291.63,176.79Z"/></svg>